<svg width="19" height="16" viewBox="0 0 19 16" fill="none" xmlns="http://www.w3.org/2000/svg">
<path d="M18.3701 8.27634L11.3389 15.3076C11.2656 15.3809 11.1662 15.4221 11.0625 15.4221C10.9588 15.4221 10.8594 15.3809 10.7861 15.3076C10.7128 15.2343 10.6717 15.1349 10.6717 15.0312C10.6717 14.9276 10.7128 14.8282 10.7861 14.7549L17.1504 8.3906H0.90625C0.80265 8.3906 0.703293 8.34944 0.630036 8.27619C0.55678 8.20293 0.515625 8.10357 0.515625 7.99997C0.515625 7.89637 0.55678 7.79702 0.630036 7.72376C0.703293 7.6505 0.80265 7.60935 0.90625 7.60935H17.1504L10.7861 1.24509C10.7128 1.17179 10.6717 1.07238 10.6717 0.968723C10.6717 0.865065 10.7128 0.765653 10.7861 0.692356C10.8594 0.619059 10.9588 0.577881 11.0625 0.577881C11.1662 0.577881 11.2656 0.619059 11.3389 0.692356L18.3701 7.72361C18.4064 7.75988 18.4352 7.80297 18.4549 7.85039C18.4746 7.89781 18.4847 7.94864 18.4847 7.99997C18.4847 8.05131 18.4746 8.10214 18.4549 8.14956C18.4352 8.19698 18.4064 8.24006 18.3701 8.27634Z" fill="#202020"/>
</svg>
