<svg width="19" height="34" viewBox="0 0 19 34" fill="none" xmlns="http://www.w3.org/2000/svg">
<path d="M17.8027 32.0723C17.9493 32.2189 18.0317 32.4177 18.0317 32.625C18.0317 32.8323 17.9493 33.0311 17.8027 33.1777C17.6561 33.3243 17.4573 33.4067 17.25 33.4067C17.0427 33.4067 16.8439 33.3243 16.6973 33.1777L1.07227 17.5527C0.999631 17.4802 0.942006 17.394 0.902691 17.2992C0.863375 17.2043 0.84314 17.1027 0.84314 17C0.84314 16.8973 0.863375 16.7957 0.902691 16.7008C0.942006 16.606 0.999631 16.5198 1.07227 16.4473L16.6973 0.822272C16.7699 0.749686 16.856 0.692108 16.9509 0.652825C17.0457 0.613541 17.1474 0.593323 17.25 0.593323C17.3527 0.593323 17.4543 0.613541 17.5491 0.652825C17.644 0.692108 17.7302 0.749686 17.8027 0.822272C17.8753 0.894859 17.9329 0.981031 17.9722 1.07587C18.0115 1.17071 18.0317 1.27235 18.0317 1.37501C18.0317 1.47766 18.0115 1.57931 17.9722 1.67414C17.9329 1.76898 17.8753 1.85516 17.8027 1.92774L2.73047 17L17.8027 32.0723Z" fill="white"/>
</svg>
