<svg width="19" height="34" viewBox="0 0 19 34" fill="none" xmlns="http://www.w3.org/2000/svg">
<path d="M17.9277 17.5527L2.30268 33.1777C2.2301 33.2503 2.14392 33.3079 2.04908 33.3472C1.95425 33.3865 1.8526 33.4067 1.74995 33.4067C1.64729 33.4067 1.54565 33.3865 1.45081 33.3472C1.35597 33.3079 1.2698 33.2503 1.19721 33.1777C1.12463 33.1052 1.06705 33.019 1.02777 32.9241C0.988482 32.8293 0.968262 32.7277 0.968262 32.625C0.968262 32.5224 0.988482 32.4207 1.02777 32.3259C1.06705 32.231 1.12463 32.1449 1.19721 32.0723L16.2695 17L1.19721 1.92774C1.05062 1.78115 0.968262 1.58232 0.968262 1.37501C0.968262 1.16769 1.05062 0.968867 1.19721 0.822272C1.34381 0.675678 1.54263 0.593323 1.74995 0.593323C1.95726 0.593323 2.15609 0.675678 2.30268 0.822272L17.9277 16.4473C18.0003 16.5198 18.0579 16.606 18.0973 16.7008C18.1366 16.7957 18.1568 16.8973 18.1568 17C18.1568 17.1027 18.1366 17.2043 18.0973 17.2992C18.0579 17.394 18.0003 17.4802 17.9277 17.5527Z" fill="white"/>
</svg>
