<svg width="6" height="10" viewBox="0 0 6 10" fill="none" xmlns="http://www.w3.org/2000/svg">
<path d="M5.47821 5.16571L0.790707 9.85321C0.768931 9.87498 0.743079 9.89226 0.714628 9.90404C0.686176 9.91583 0.655682 9.92189 0.624886 9.92189C0.594091 9.92189 0.563597 9.91583 0.535145 9.90404C0.506694 9.89226 0.480842 9.87498 0.459066 9.85321C0.43729 9.83143 0.420017 9.80558 0.408232 9.77713C0.396447 9.74868 0.390381 9.71818 0.390381 9.68739C0.390381 9.65659 0.396447 9.6261 0.408232 9.59764C0.420017 9.56919 0.43729 9.54334 0.459066 9.52157L4.98075 4.99989L0.459066 0.478207C0.415088 0.434228 0.390381 0.374581 0.390381 0.312386C0.390381 0.250191 0.415088 0.190544 0.459066 0.146566C0.503044 0.102587 0.562692 0.0778809 0.624886 0.0778809C0.687081 0.0778809 0.746729 0.102587 0.790707 0.146566L5.47821 4.83407C5.5 4.85583 5.51729 4.88168 5.52908 4.91013C5.54087 4.93859 5.54695 4.96909 5.54695 4.99989C5.54695 5.03069 5.54087 5.06119 5.52908 5.08964C5.51729 5.11809 5.5 5.14394 5.47821 5.16571Z" fill="#202020"/>
</svg>
