<svg width="11" height="22" viewBox="0 0 11 22" fill="none" xmlns="http://www.w3.org/2000/svg">
<path d="M0.67296 1.35372C0.588483 1.2599 0.541023 1.13265 0.541023 0.999966C0.541023 0.867283 0.588483 0.740036 0.67296 0.646215C0.757439 0.552395 0.872016 0.499687 0.991486 0.499687C1.11096 0.499687 1.22553 0.552395 1.31001 0.646215L10.3142 10.6462C10.3561 10.6927 10.3893 10.7478 10.412 10.8085C10.4346 10.8692 10.4463 10.9343 10.4463 11C10.4463 11.0657 10.4346 11.1307 10.412 11.1914C10.3893 11.2521 10.3561 11.3073 10.3142 11.3537L1.31001 21.3537C1.26818 21.4002 1.21852 21.437 1.16387 21.4622C1.10922 21.4873 1.05064 21.5002 0.991486 21.5002C0.93233 21.5002 0.873754 21.4873 0.819101 21.4622C0.764448 21.437 0.71479 21.4002 0.67296 21.3537C0.631131 21.3073 0.597951 21.2521 0.575314 21.1914C0.552675 21.1307 0.541023 21.0657 0.541023 21C0.541023 20.9343 0.552675 20.8692 0.575314 20.8085C0.597951 20.7478 0.631131 20.6927 0.67296 20.6462L9.35867 11L0.67296 1.35372Z" fill="#202020"/>
</svg>
