<svg width="29" height="32" viewBox="0 0 29 32" fill="none" xmlns="http://www.w3.org/2000/svg">
<path d="M18.327 25.6463C18.4115 25.7401 18.459 25.8674 18.459 26C18.459 26.1327 18.4115 26.26 18.327 26.3538C18.2426 26.4476 18.128 26.5003 18.0085 26.5003C17.889 26.5003 17.7745 26.4476 17.69 26.3538L8.68575 16.3538C8.64389 16.3073 8.61069 16.2522 8.58803 16.1915C8.56537 16.1308 8.55371 16.0657 8.55371 16C8.55371 15.9343 8.56537 15.8693 8.58803 15.8086C8.61069 15.7479 8.64389 15.6927 8.68575 15.6463L17.69 5.64628C17.7318 5.59983 17.7815 5.56298 17.8361 5.53784C17.8908 5.5127 17.9494 5.49976 18.0085 5.49976C18.0677 5.49976 18.1262 5.5127 18.1809 5.53784C18.2356 5.56298 18.2852 5.59983 18.327 5.64628C18.3689 5.69274 18.402 5.74789 18.4247 5.80859C18.4473 5.86928 18.459 5.93434 18.459 6.00003C18.459 6.06573 18.4473 6.13079 18.4247 6.19148C18.402 6.25218 18.3689 6.30733 18.327 6.35378L9.64133 16L18.327 25.6463Z" fill="#202020"/>
</svg>
