<svg width="30" height="30" viewBox="0 0 30 30" fill="none" xmlns="http://www.w3.org/2000/svg">
<g id="Books / Icon for Categories">
<rect width="30" height="30" rx="15" fill="#D3BCC5"/>
<path id="Vector" d="M12.1875 4.2187H6.5625C6.18954 4.2187 5.83185 4.36686 5.56813 4.63058C5.30441 4.8943 5.15625 5.25199 5.15625 5.62495V24.3749C5.15625 24.7479 5.30441 25.1056 5.56813 25.3693C5.83185 25.633 6.18954 25.7812 6.5625 25.7812H12.1875C12.5605 25.7812 12.9181 25.633 13.1819 25.3693C13.4456 25.1056 13.5937 24.7479 13.5937 24.3749V5.62495C13.5937 5.25199 13.4456 4.8943 13.1819 4.63058C12.9181 4.36686 12.5605 4.2187 12.1875 4.2187ZM6.09375 8.9062H12.6562V21.0937H6.09375V8.9062ZM6.5625 5.1562H12.1875C12.3118 5.1562 12.431 5.20558 12.519 5.29349C12.6069 5.3814 12.6562 5.50063 12.6562 5.62495V7.9687H6.09375V5.62495C6.09375 5.50063 6.14314 5.3814 6.23104 5.29349C6.31895 5.20558 6.43818 5.1562 6.5625 5.1562ZM12.1875 24.8437H6.5625C6.43818 24.8437 6.31895 24.7943 6.23104 24.7064C6.14314 24.6185 6.09375 24.4993 6.09375 24.3749V22.0312H12.6562V24.3749C12.6562 24.4993 12.6069 24.6185 12.519 24.7064C12.431 24.7943 12.3118 24.8437 12.1875 24.8437ZM26.6883 22.896L22.7988 4.40268C22.7612 4.22123 22.6881 4.04901 22.5837 3.89591C22.4793 3.74282 22.3456 3.61187 22.1904 3.51059C22.0353 3.40931 21.8616 3.3397 21.6794 3.30577C21.4972 3.27183 21.3101 3.27423 21.1289 3.31284L15.6434 4.49057C15.2787 4.57119 14.9606 4.79239 14.7581 5.10614C14.5556 5.4199 14.485 5.80088 14.5617 6.16635L18.4512 24.6597C18.4888 24.8412 18.5619 25.0134 18.6663 25.1665C18.7707 25.3196 18.9044 25.4505 19.0596 25.5518C19.2147 25.6531 19.3884 25.7227 19.5706 25.7566C19.7528 25.7906 19.9398 25.7882 20.1211 25.7496L25.6066 24.5706C25.9713 24.4906 26.2896 24.2697 26.4922 23.956C26.6948 23.6424 26.7653 23.2614 26.6883 22.896ZM16.9371 12.9035L23.3391 11.5289L25.0969 19.8574L18.6949 21.2332L16.9371 12.9035ZM16.159 9.20503L22.5621 7.82924L23.148 10.6113L16.7449 11.9859L16.159 9.20503ZM15.8414 5.40815L21.3281 4.22924C21.3605 4.22226 21.3935 4.21873 21.4266 4.2187C21.5156 4.21898 21.6027 4.24503 21.6773 4.2937C21.7302 4.32768 21.7758 4.37197 21.8112 4.42391C21.8466 4.47585 21.8713 4.53439 21.8836 4.59604L22.3687 6.91401L15.9656 8.28745L15.4793 5.97651C15.4521 5.85313 15.4749 5.72399 15.5428 5.61743C15.6107 5.51087 15.7181 5.4356 15.8414 5.40815ZM25.4098 23.6542L19.9219 24.8331C19.8008 24.8589 19.6744 24.8358 19.5703 24.7687C19.5174 24.7347 19.4719 24.6904 19.4365 24.6385C19.401 24.5865 19.3764 24.528 19.3641 24.4664L18.8812 22.1484L25.2844 20.7738L25.7707 23.0859C25.798 23.2091 25.7753 23.3381 25.7076 23.4446C25.64 23.5512 25.5329 23.6265 25.4098 23.6542Z" fill="white"/>
</g>
</svg>
