<svg width="23" height="24" viewBox="0 0 23 24" fill="none" xmlns="http://www.w3.org/2000/svg">
<path d="M18.223 18.2145C18.2904 18.2819 18.3283 18.3734 18.3283 18.4688C18.3283 18.5641 18.2904 18.6556 18.223 18.723C18.1555 18.7905 18.0641 18.8283 17.9687 18.8283C17.8733 18.8283 17.7819 18.7905 17.7144 18.723L11.5 12.5085L5.28546 18.723C5.21803 18.7905 5.12657 18.8283 5.03121 18.8283C4.93584 18.8283 4.84438 18.7905 4.77695 18.723C4.70951 18.6556 4.67163 18.5641 4.67163 18.4688C4.67163 18.3734 4.70951 18.2819 4.77695 18.2145L10.9914 12L4.77695 5.78552C4.70951 5.71809 4.67163 5.62663 4.67163 5.53127C4.67163 5.4359 4.70951 5.34444 4.77695 5.27701C4.84438 5.20958 4.93584 5.17169 5.03121 5.17169C5.12657 5.17169 5.21803 5.20958 5.28546 5.27701L11.5 11.4915L17.7144 5.27701C17.7478 5.24362 17.7875 5.21713 17.8311 5.19906C17.8747 5.18099 17.9215 5.17169 17.9687 5.17169C18.0159 5.17169 18.0627 5.18099 18.1063 5.19906C18.1499 5.21713 18.1896 5.24362 18.223 5.27701C18.2564 5.3104 18.2828 5.35004 18.3009 5.39366C18.319 5.43729 18.3283 5.48405 18.3283 5.53127C18.3283 5.57849 18.319 5.62524 18.3009 5.66887C18.2828 5.7125 18.2564 5.75214 18.223 5.78552L12.0085 12L18.223 18.2145Z" fill="#202020"/>
</svg>
