<svg width="150" height="200" viewBox="0 0 150 200" fill="none" xmlns="http://www.w3.org/2000/svg">
<path d="M122.419 151.107L122.424 151.101L122.43 151.095C126.253 146.867 129.949 141.758 132.482 136.297C135.015 130.839 136.4 124.998 135.553 119.325C133.848 107.906 123.188 97.5147 95.8733 92.2062C89.1124 90.8922 84.3157 88.6981 81.141 85.8765C77.978 83.0655 76.3965 79.6072 76.0998 75.6876C75.5024 67.7961 80.1131 57.9896 87.7716 47.9635C102.898 28.1614 129.575 7.9326 149.5 0.709118V177.381C149.419 180.618 148.313 186.168 145.088 190.895C141.879 195.599 136.568 199.5 128 199.5H0.711085L0.956444 198.817C0.957188 198.815 0.957932 198.813 0.958676 198.811C3.63199 191.912 9.78783 181.17 19.7912 172.919C29.7827 164.678 43.6105 158.92 61.6821 161.949C79.9342 165.008 92.1418 165.403 101.28 163.473C110.449 161.537 116.489 157.268 122.419 151.107Z" fill="#FFE5B4" stroke="#FFE5B4"/>
</svg>
