<svg width="26" height="26" viewBox="0 0 26 26" fill="none" xmlns="http://www.w3.org/2000/svg">
<path d="M4.875 4.0625L21.125 21.9375" stroke="#999999" stroke-width="2" stroke-linecap="round" stroke-linejoin="round"/>
<path d="M15.7316 16.0063C14.9861 16.6893 14.0106 17.0664 12.9996 17.0625C12.1796 17.0624 11.3789 16.8142 10.7026 16.3505C10.0264 15.8869 9.50627 15.2294 9.21067 14.4646C8.91508 13.6998 8.85783 12.8634 9.04646 12.0654C9.23509 11.2675 9.66077 10.5453 10.2675 9.99377" stroke="#999999" stroke-width="2" stroke-linecap="round" stroke-linejoin="round"/>
<path d="M7.51562 6.96716C3.37188 9.05935 1.625 13 1.625 13C1.625 13 4.875 20.3125 13 20.3125C14.9039 20.328 16.784 19.8893 18.4844 19.0328" stroke="#999999" stroke-width="2" stroke-linecap="round" stroke-linejoin="round"/>
<path d="M21.1857 17.1742C23.3998 15.1938 24.3748 13 24.3748 13C24.3748 13 21.1248 5.68752 12.9998 5.68752C12.2954 5.68613 11.5922 5.74389 10.8975 5.86018" stroke="#999999" stroke-width="2" stroke-linecap="round" stroke-linejoin="round"/>
<path d="M13.7617 9.00861C14.6257 9.1723 15.4129 9.61256 16.0047 10.2629C16.5964 10.9133 16.9606 11.7386 17.0422 12.6141" stroke="#999999" stroke-width="2" stroke-linecap="round" stroke-linejoin="round"/>
</svg>
