<svg width="56" height="53" viewBox="0 0 56 53" fill="none" xmlns="http://www.w3.org/2000/svg">
<g id="Group 6">
<g id="Vector 3">
<path d="M3.29167 39.7102C2.81998 38.6284 2.31201 35.9397 4.05363 33.8393L22.0141 29.5L43.5666 36.1366C42.861 38.4411 42.9098 40.166 43.1499 41.2417L46.4693 42.3356L45.3082 42.7246C45.083 43.4433 44.9926 44.9924 46.3825 45.5483C46.8421 45.3274 47.2725 45.1183 47.6667 44.9246L46.4693 45.581C46.4397 45.5705 46.4108 45.5596 46.3825 45.5483C41.1586 48.0584 32.1607 52.0793 29.7062 51.9988C29.4368 51.99 29.2029 51.9576 29.0011 51.9052C20.2698 50.735 3.57185 48.1109 1.36863 46.2374C1.09045 45.6374 0.701007 44.0171 1.36863 42.3356L4.92443 40.2338C4.34949 40.0505 3.80299 39.8752 3.29167 39.7102Z" fill="#D3BCC5"/>
<path d="M4.05363 33.8393C2.31201 35.9397 2.81998 38.6284 3.29167 39.7102C3.80299 39.8752 4.34949 40.0505 4.92443 40.2338M4.05363 33.8393L22.0141 29.5L43.5666 36.1366M4.05363 33.8393L25.6062 39.7102M43.5666 36.1366L25.6062 39.7102M43.5666 36.1366C42.861 38.4411 42.9098 40.166 43.1499 41.2417M25.6062 39.7102C24.7595 42.0318 23.9153 46.5874 27.3115 46.2374M27.3115 46.2374L43.5666 42.3356C43.4252 42.1264 43.2654 41.7592 43.1499 41.2417M27.3115 46.2374C26.4989 46.8907 12.9444 42.79 4.92443 40.2338M4.92443 40.2338L1.36863 42.3356M1.36863 42.3356L28.6177 48.3159M1.36863 42.3356C0.701007 44.0171 1.09045 45.6374 1.36863 46.2374C3.63273 48.1627 21.2037 50.8806 29.7062 51.9988M28.6177 48.3159L45.3082 42.7246M28.6177 48.3159C27.8678 49.507 27.0357 51.9113 29.7062 51.9988M43.1499 41.2417L46.4693 42.3356L45.3082 42.7246M45.3082 42.7246C45.0784 43.4579 44.9889 45.0559 46.4693 45.581L47.6667 44.9246C42.7926 47.3192 32.3767 52.0863 29.7062 51.9988" stroke="black"/>
</g>
<g id="Vector 2" filter="url(#filter0_d_0_119)">
<path d="M16.4167 27.8333C20.5834 27.8333 24.2581 27.4423 25.9202 26.1159C26.0878 25.9821 27.6908 25.2178 28.0391 24.9541C28.0531 24.9416 28.0679 24.9291 28.0834 24.9167C29.476 23.8722 29.4141 23.9914 29.3561 24.0588C32.0359 21.1622 33.513 20.324 38.0834 17C43.4209 13.1182 48.9167 4.08333 51.0001 2C48.9719 11.5459 43.3367 29.3906 43.3367 29.3906C43.3367 29.3906 43.1334 31.9807 44.3334 34.0833C45.8306 36.7067 48.9167 39.5 48.5001 39.9167C42.3167 42.6799 26.7455 40.7353 16.4167 27.8333Z" fill="#B58497"/>
<path d="M25.9202 26.1159C24.2581 27.4423 20.5834 27.8333 16.4167 27.8333C26.7455 40.7353 42.3167 42.6799 48.5001 39.9167C48.9167 39.5 45.8306 36.7067 44.3334 34.0833M25.9202 26.1159C28.8868 28.4772 36.2587 35.2891 44.3334 34.0833M25.9202 26.1159C26.0966 25.9751 27.8641 25.1353 28.0834 24.9167M43.3367 29.3906C43.3367 29.3906 48.9719 11.5459 51.0001 2C48.9167 4.08333 43.4209 13.1182 38.0834 17C33.5001 20.3333 32.0276 21.1669 29.3334 24.0833M43.3367 29.3906C43.3367 29.3906 43.1334 31.9807 44.3334 34.0833M43.3367 29.3906C36.807 29.0289 26.0651 26.5324 28.0834 24.9167M44.3334 34.0833C38.9892 35.4097 32.6115 27.349 29.3334 24.0833M28.0834 24.9167C29.7501 23.6667 29.3334 24.0833 29.3334 24.0833" stroke="black"/>
</g>
<path id="Star 6" d="M32.3087 21.7888L32.4162 23.0287L33.8668 23.4694L32.4842 23.7899L32.5982 25.0301L31.6363 23.9883L30.2562 24.3141L31.0442 23.3497L30.0772 22.3108L31.5262 22.7566L32.3087 21.7888Z" fill="#FFE5B4"/>
<path id="Star 7" d="M39.2345 19.2185L39.7827 20.3186L41.2735 20.2648L40.124 21.0471L40.6152 22.1653L39.3566 21.5486L38.1695 22.2934L38.5411 21.13L37.3162 20.4722L38.8044 20.3699L39.2345 19.2185Z" fill="#FFE5B4"/>
<path id="Star 8" d="M40.5805 27.1091L41.1286 28.2092L42.6194 28.1554L41.4699 28.9377L41.9611 30.0559L40.7026 29.4392L39.5154 30.1841L39.887 29.0207L38.6621 28.3628L40.1503 28.2605L40.5805 27.1091Z" fill="#FFE5B4"/>
<path id="Star 9" d="M45.5188 14.5687L45.8684 15.3517L46.8065 15.3198L46.0863 15.87L46.4002 16.6655L45.6055 16.2227L44.8613 16.7462L45.0903 15.9222L44.3166 15.4503L45.2529 15.3839L45.5188 14.5687Z" fill="#FFE5B4"/>
</g>
<defs>
<filter id="filter0_d_0_119" x="11.376" y="0.453064" width="44.4639" height="49.0557" filterUnits="userSpaceOnUse" color-interpolation-filters="sRGB">
<feFlood flood-opacity="0" result="BackgroundImageFix"/>
<feColorMatrix in="SourceAlpha" type="matrix" values="0 0 0 0 0 0 0 0 0 0 0 0 0 0 0 0 0 0 127 0" result="hardAlpha"/>
<feOffset dy="4"/>
<feGaussianBlur stdDeviation="2"/>
<feComposite in2="hardAlpha" operator="out"/>
<feColorMatrix type="matrix" values="0 0 0 0 0 0 0 0 0 0 0 0 0 0 0 0 0 0 0.25 0"/>
<feBlend mode="normal" in2="BackgroundImageFix" result="effect1_dropShadow_0_119"/>
<feBlend mode="normal" in="SourceGraphic" in2="effect1_dropShadow_0_119" result="shape"/>
</filter>
</defs>
</svg>
