<svg width="190" height="26" viewBox="0 0 190 26" fill="none" xmlns="http://www.w3.org/2000/svg">
<rect width="190" height="26" rx="13" fill="#D3BCC5"/>
<path d="M24.7639 4.44078C24.8417 4.21689 25.1583 4.21689 25.2361 4.44078L27.0008 9.51737C27.1038 9.81367 27.3803 10.0146 27.6939 10.021L33.0673 10.1305C33.3043 10.1353 33.4022 10.4364 33.2133 10.5796L28.9304 13.8266C28.6805 14.0162 28.5749 14.3412 28.6657 14.6415L30.222 19.7858C30.2907 20.0126 30.0345 20.1987 29.8399 20.0634L25.4284 16.9935C25.1709 16.8143 24.8291 16.8143 24.5716 16.9935L20.1601 20.0634C19.9655 20.1987 19.7093 20.0126 19.778 19.7858L21.3343 14.6415C21.4251 14.3412 21.3195 14.0162 21.0696 13.8266L16.7867 10.5796C16.5978 10.4364 16.6957 10.1353 16.9327 10.1305L22.3061 10.021C22.6197 10.0146 22.8962 9.81367 22.9992 9.51737L24.7639 4.44078Z" fill="#FFE5B4" stroke="#202020" stroke-width="0.5"/>
<path d="M54.7639 4.44078C54.8417 4.21689 55.1583 4.21689 55.2361 4.44078L57.0008 9.51737C57.1038 9.81367 57.3803 10.0146 57.6939 10.021L63.0673 10.1305C63.3043 10.1353 63.4022 10.4364 63.2133 10.5796L58.9304 13.8266C58.6805 14.0162 58.5749 14.3412 58.6657 14.6415L60.222 19.7858C60.2907 20.0126 60.0345 20.1987 59.8399 20.0634L55.4284 16.9935C55.1709 16.8143 54.8291 16.8143 54.5716 16.9935L50.1601 20.0634C49.9655 20.1987 49.7093 20.0126 49.778 19.7858L51.3343 14.6415C51.4251 14.3412 51.3195 14.0162 51.0696 13.8266L46.7867 10.5796C46.5978 10.4364 46.6957 10.1353 46.9327 10.1305L52.3061 10.021C52.6197 10.0146 52.8962 9.81367 52.9992 9.51737L54.7639 4.44078Z" fill="#FFE5B4" stroke="#202020" stroke-width="0.5"/>
<path d="M84.7639 4.44078C84.8417 4.21689 85.1583 4.21689 85.2361 4.44078L87.0008 9.51737C87.1038 9.81367 87.3803 10.0146 87.6939 10.021L93.0673 10.1305C93.3043 10.1353 93.4022 10.4364 93.2133 10.5796L88.9304 13.8266C88.6805 14.0162 88.5749 14.3412 88.6657 14.6415L90.222 19.7858C90.2907 20.0126 90.0345 20.1987 89.8399 20.0634L85.4284 16.9935C85.1709 16.8143 84.8291 16.8143 84.5716 16.9935L80.1601 20.0634C79.9655 20.1987 79.7093 20.0126 79.778 19.7858L81.3343 14.6415C81.4251 14.3412 81.3195 14.0162 81.0696 13.8266L76.7867 10.5796C76.5978 10.4364 76.6957 10.1353 76.9327 10.1305L82.3061 10.021C82.6197 10.0146 82.8962 9.81367 82.9992 9.51737L84.7639 4.44078Z" fill="#FFE5B4" stroke="#202020" stroke-width="0.5"/>
<path d="M114.764 4.44078C114.842 4.21689 115.158 4.21689 115.236 4.44078L117.001 9.51737C117.104 9.81367 117.38 10.0146 117.694 10.021L123.067 10.1305C123.304 10.1353 123.402 10.4364 123.213 10.5796L118.93 13.8266C118.68 14.0162 118.575 14.3412 118.666 14.6415L120.222 19.7858C120.291 20.0126 120.035 20.1987 119.84 20.0634L115.428 16.9935C115.171 16.8143 114.829 16.8143 114.572 16.9935L110.16 20.0634C109.965 20.1987 109.709 20.0126 109.778 19.7858L111.334 14.6415C111.425 14.3412 111.32 14.0162 111.07 13.8266L106.787 10.5796C106.598 10.4364 106.696 10.1353 106.933 10.1305L112.306 10.021C112.62 10.0146 112.896 9.81367 112.999 9.51737L114.764 4.44078Z" fill="#FFE5B4" stroke="#202020" stroke-width="0.5"/>
<path d="M144.764 4.44078C144.842 4.21689 145.158 4.21689 145.236 4.44078L147.001 9.51737C147.104 9.81367 147.38 10.0146 147.694 10.021L153.067 10.1305C153.304 10.1353 153.402 10.4364 153.213 10.5796L148.93 13.8266C148.68 14.0162 148.575 14.3412 148.666 14.6415L150.222 19.7858C150.291 20.0126 150.035 20.1987 149.84 20.0634L145.428 16.9935C145.171 16.8143 144.829 16.8143 144.572 16.9935L140.16 20.0634C139.965 20.1987 139.709 20.0126 139.778 19.7858L141.334 14.6415C141.425 14.3412 141.32 14.0162 141.07 13.8266L136.787 10.5796C136.598 10.4364 136.696 10.1353 136.933 10.1305L142.306 10.021C142.62 10.0146 142.896 9.81367 142.999 9.51737L144.764 4.44078Z" stroke="#202020" stroke-width="0.5"/>
<path d="M171.178 20V11.28C171.178 10.9467 171.191 10.5467 171.218 10.08C171.245 9.61333 171.265 9.21333 171.278 8.88H171.198C171.038 9.17333 170.871 9.46 170.698 9.74C170.525 10.02 170.345 10.32 170.158 10.64L166.978 15.24H174.338V16.4H165.418V15.46L170.998 7.24H172.558V20H171.178Z" fill="#202020"/>
</svg>
