<svg width="32" height="32" viewBox="0 0 32 32" fill="none"
	xmlns="http://www.w3.org/2000/svg">
	<path d="M28.3286 27.6218L21.7478 21.041C23.5922 19.012 24.5699 16.3422 24.472 13.6019C24.3741 10.8617 23.2084 8.26844 21.2239 6.37626C19.2395 4.48408 16.5936 3.44309 13.8519 3.47572C11.1101 3.50835 8.48977 4.61203 6.5509 6.5509C4.61203 8.48977 3.50835 11.1101 3.47572 13.8519C3.44309 16.5936 4.48408 19.2395 6.37626 21.2239C8.26844 23.2084 10.8617 24.3741 13.6019 24.472C16.3422 24.5699 19.012 23.5922 21.041 21.7478L27.6218 28.3286C27.7155 28.4223 27.8427 28.475 27.9752 28.475C28.1077 28.475 28.2349 28.4223 28.3286 28.3286C28.4223 28.2349 28.475 28.1077 28.475 27.9752C28.475 27.8427 28.4223 27.7155 28.3286 27.6218ZM4.49898 13.9894C4.49898 12.1123 5.05558 10.2775 6.0984 8.71679C7.14121 7.1561 8.62341 5.9397 10.3576 5.22139C12.0917 4.50309 13.9999 4.31514 15.8408 4.68133C17.6818 5.04752 19.3728 5.95139 20.7001 7.27865C22.0273 8.6059 22.9312 10.2969 23.2974 12.1379C23.6636 13.9788 23.4756 15.887 22.7573 17.6212C22.039 19.3553 20.8226 20.8375 19.2619 21.8803C17.7013 22.9232 15.8664 23.4798 13.9894 23.4798C11.4732 23.4771 9.06079 22.4764 7.28157 20.6972C5.50235 18.9179 4.50162 16.5056 4.49898 13.9894Z" fill="#202020"/>
</svg>
