<svg width="35" height="35" viewBox="0 0 35 35" fill="none" xmlns="http://www.w3.org/2000/svg">
<g id="ShoppingCartSimple">
<path id="Vector" d="M13.125 29.5313C13.125 29.9639 12.9967 30.3868 12.7563 30.7466C12.516 31.1063 12.1743 31.3867 11.7746 31.5522C11.3749 31.7178 10.9351 31.7611 10.5107 31.6767C10.0864 31.5923 9.69663 31.384 9.3907 31.078C9.08478 30.7721 8.87644 30.3823 8.79203 29.958C8.70763 29.5337 8.75095 29.0938 8.91651 28.6941C9.08208 28.2944 9.36246 27.9528 9.72219 27.7124C10.0819 27.472 10.5049 27.3438 10.9375 27.3438C11.5177 27.3438 12.0741 27.5742 12.4843 27.9845C12.8945 28.3947 13.125 28.9511 13.125 29.5313ZM25.1562 27.3438C24.7236 27.3438 24.3007 27.472 23.9409 27.7124C23.5812 27.9528 23.3008 28.2944 23.1353 28.6941C22.9697 29.0938 22.9264 29.5337 23.0108 29.958C23.0952 30.3823 23.3035 30.7721 23.6095 31.078C23.9154 31.384 24.3052 31.5923 24.7295 31.6767C25.1538 31.7611 25.5937 31.7178 25.9934 31.5522C26.3931 31.3867 26.7347 31.1063 26.9751 30.7466C27.2155 30.3868 27.3438 29.9639 27.3438 29.5313C27.3438 28.9511 27.1133 28.3947 26.703 27.9845C26.2928 27.5742 25.7364 27.3438 25.1562 27.3438ZM31.6709 10.165L27.7703 22.8402C27.566 23.5122 27.1506 24.1003 26.5856 24.5175C26.0207 24.9347 25.3363 25.1587 24.634 25.1563H11.4939C10.7816 25.1536 10.0893 24.9202 9.52069 24.4911C8.95209 24.062 8.5378 23.4603 8.33984 22.776L3.39336 5.46875H1.09375C0.803669 5.46875 0.52547 5.35352 0.320352 5.1484C0.115234 4.94328 0 4.66508 0 4.375C0 4.08492 0.115234 3.80672 0.320352 3.6016C0.52547 3.39648 0.803669 3.28125 1.09375 3.28125H3.39336C3.86833 3.28283 4.33002 3.43819 4.70932 3.72408C5.08862 4.00997 5.36513 4.41102 5.49746 4.86719L6.60625 8.75H30.625C30.7962 8.74994 30.9649 8.79005 31.1178 8.8671C31.2706 8.94415 31.4032 9.05599 31.505 9.19364C31.6067 9.33128 31.6747 9.49088 31.7035 9.65959C31.7324 9.82831 31.7212 10.0014 31.6709 10.165ZM29.1443 10.9375H7.23105L10.4426 22.1758C10.5079 22.4042 10.6459 22.6052 10.8355 22.7482C11.0252 22.8913 11.2564 22.9687 11.4939 22.9688H24.634C24.868 22.9688 25.0959 22.8938 25.2842 22.7548C25.4724 22.6158 25.6111 22.42 25.6799 22.1963L29.1443 10.9375Z" fill="#202020"/>
</g>
</svg>
