<svg width="35" height="36" viewBox="0 0 35 36" fill="none" xmlns="http://www.w3.org/2000/svg">
<g id="ShoppingCartSimple">
<path id="Vector" d="M11.0526 21.9861L11.0522 21.9848L7.02767 5.9171L7.02763 5.91692C6.97722 5.71598 7.00326 5.5036 7.09455 5.32876C7.18509 5.15535 7.32802 5.0396 7.48262 4.99177C7.48298 4.99166 7.48333 4.99155 7.48369 4.99144L11.8777 3.66404C11.8778 3.66402 11.8779 3.66399 11.8779 3.66397C11.9548 3.64095 12.0346 3.63466 12.1135 3.64532C12.1925 3.656 12.271 3.68378 12.3442 3.72909C12.4175 3.77447 12.4845 3.83682 12.5397 3.91439C12.5949 3.99201 12.6367 4.08259 12.6611 4.18124L12.6614 4.18251L16.6859 20.25C16.686 20.2501 16.686 20.2501 16.686 20.2502C16.7362 20.4513 16.7101 20.6639 16.6188 20.8389C16.5282 21.0125 16.3853 21.1285 16.2306 21.1767L11.836 22.5033C11.8359 22.5033 11.8357 22.5033 11.8356 22.5034C11.7588 22.5264 11.679 22.5326 11.6002 22.522C11.5212 22.5113 11.4427 22.4835 11.3695 22.4382C11.2962 22.3928 11.2292 22.3305 11.174 22.2529L10.7799 22.5364L11.174 22.2529C11.1188 22.1753 11.077 22.0847 11.0526 21.9861Z" fill="#D3BCC5" stroke="black"/>
<path id="Vector_2" d="M15.0526 21.9861L15.0522 21.9848L11.0277 5.9171L11.0276 5.91692C10.9772 5.71598 11.0033 5.5036 11.0945 5.32876C11.1851 5.15535 11.328 5.0396 11.4826 4.99177C11.483 4.99166 11.4833 4.99155 11.4837 4.99144L15.8777 3.66404C15.8778 3.66402 15.8779 3.66399 15.8779 3.66397C15.9548 3.64095 16.0346 3.63466 16.1135 3.64532C16.1925 3.656 16.271 3.68378 16.3442 3.72908C16.4175 3.77446 16.4845 3.83682 16.5397 3.91439C16.5949 3.99201 16.6367 4.08258 16.6611 4.18124L16.6614 4.1825L20.6859 20.25C20.686 20.2501 20.686 20.2501 20.686 20.2502C20.7362 20.4513 20.7101 20.6639 20.6188 20.8389C20.5282 21.0125 20.3853 21.1285 20.2306 21.1767L15.836 22.5033C15.8359 22.5033 15.8357 22.5033 15.8356 22.5034C15.7588 22.5264 15.679 22.5326 15.6002 22.522C15.5212 22.5113 15.4427 22.4835 15.3695 22.4382C15.2962 22.3928 15.2292 22.3305 15.174 22.2529C15.1188 22.1753 15.077 22.0847 15.0526 21.9861Z" fill="#B58497" stroke="black"/>
<path id="Vector_3" d="M17.5583 21.3915L17.5583 21.3902L18.261 4.841L18.261 4.84082C18.2697 4.63384 18.355 4.43759 18.4921 4.29585C18.6282 4.15528 18.7981 4.08488 18.9599 4.08291C18.9603 4.0829 18.9607 4.0829 18.961 4.08289L23.5511 4.05757C23.5512 4.05757 23.5513 4.05757 23.5513 4.05757C23.6316 4.05732 23.7099 4.07394 23.7825 4.10655C23.8552 4.13923 23.9226 4.18814 23.9799 4.25237C24.0373 4.3167 24.0838 4.39551 24.1147 4.48555C24.1457 4.57566 24.16 4.67437 24.1554 4.7759L24.1554 4.7772L23.4527 21.3262C23.4527 21.3262 23.4527 21.3263 23.4527 21.3263C23.4438 21.5335 23.3584 21.7298 23.2212 21.8718C23.085 22.0125 22.9151 22.0832 22.753 22.0855L18.1626 22.1098C18.1625 22.1098 18.1624 22.1098 18.1622 22.1098C18.0821 22.11 18.0038 22.0934 17.9312 22.0608C17.8585 22.0281 17.7911 21.9792 17.7338 21.915C17.6764 21.8507 17.6299 21.7719 17.5989 21.6818L17.1406 21.8418L17.5989 21.6818C17.568 21.5917 17.5537 21.493 17.5583 21.3915Z" fill="#B58497" stroke="black"/>
<path id="Vector_4" d="M21.4008 19.8325L21.4011 19.8312L24.4699 3.55394L24.47 3.55376C24.5083 3.35017 24.6208 3.16817 24.7769 3.04758C24.9317 2.92797 25.1099 2.88267 25.2703 2.90392C25.2707 2.90397 25.2711 2.90402 25.2715 2.90407L29.8177 3.5373C29.8178 3.53731 29.8179 3.53732 29.8179 3.53734C29.8974 3.5486 29.9725 3.57627 30.0397 3.61895C30.107 3.66173 30.1666 3.7198 30.2141 3.79158C30.2617 3.86349 30.2965 3.94815 30.3141 4.04169C30.3318 4.13531 30.3319 4.23505 30.3128 4.33488L30.3125 4.33616L27.2437 20.6133C27.2437 20.6133 27.2437 20.6134 27.2437 20.6134C27.2052 20.8172 27.0925 20.9992 26.9363 21.12C26.7814 21.2397 26.6031 21.2853 26.4424 21.2644L21.8959 20.6301C21.8958 20.6301 21.8957 20.6301 21.8956 20.63C21.8162 20.6188 21.7411 20.5911 21.674 20.5484C21.6067 20.5057 21.547 20.4476 21.4995 20.3758C21.4519 20.3039 21.4171 20.2192 21.3995 20.1257L20.9229 20.2183L21.3995 20.1257C21.3818 20.0321 21.3818 19.9323 21.4008 19.8325Z" fill="#D3BCC5" stroke="black"/>
<path id="Vector_5" d="M13.125 30.0313C13.125 30.4639 12.9967 30.8868 12.7563 31.2466C12.516 31.6063 12.1743 31.8867 11.7746 32.0522C11.3749 32.2178 10.9351 32.2611 10.5107 32.1767C10.0864 32.0923 9.69663 31.884 9.3907 31.578C9.08478 31.2721 8.87644 30.8823 8.79203 30.458C8.70763 30.0337 8.75095 29.5938 8.91651 29.1941C9.08208 28.7944 9.36246 28.4528 9.72219 28.2124C10.0819 27.972 10.5049 27.8438 10.9375 27.8438C11.5177 27.8438 12.0741 28.0742 12.4843 28.4845C12.8945 28.8947 13.125 29.4511 13.125 30.0313ZM25.1562 27.8438C24.7236 27.8438 24.3007 27.972 23.9409 28.2124C23.5812 28.4528 23.3008 28.7944 23.1353 29.1941C22.9697 29.5938 22.9264 30.0337 23.0108 30.458C23.0952 30.8823 23.3035 31.2721 23.6095 31.578C23.9154 31.884 24.3052 32.0923 24.7295 32.1767C25.1538 32.2611 25.5937 32.2178 25.9934 32.0522C26.3931 31.8867 26.7347 31.6063 26.9751 31.2466C27.2155 30.8868 27.3438 30.4639 27.3438 30.0313C27.3438 29.4511 27.1133 28.8947 26.703 28.4845C26.2928 28.0742 25.7364 27.8438 25.1562 27.8438ZM31.6709 10.665L27.7703 23.3402C27.566 24.0122 27.1506 24.6003 26.5856 25.0175C26.0207 25.4347 25.3363 25.6587 24.634 25.6563H11.4939C10.7816 25.6536 10.0893 25.4202 9.52069 24.9911C8.95209 24.562 8.5378 23.9603 8.33984 23.276L3.39336 5.96875H1.09375C0.803669 5.96875 0.52547 5.85352 0.320352 5.6484C0.115234 5.44328 0 5.16508 0 4.875C0 4.58492 0.115234 4.30672 0.320352 4.1016C0.52547 3.89648 0.803669 3.78125 1.09375 3.78125H3.39336C3.86833 3.78283 4.33002 3.93819 4.70932 4.22408C5.08862 4.50997 5.36513 4.91102 5.49746 5.36719L6.60625 9.25H30.625C30.7962 9.24994 30.9649 9.29005 31.1178 9.3671C31.2706 9.44415 31.4032 9.55599 31.505 9.69364C31.6067 9.83128 31.6747 9.99088 31.7035 10.1596C31.7324 10.3283 31.7212 10.5014 31.6709 10.665ZM29.1443 11.4375H7.23105L10.4426 22.6758C10.5079 22.9042 10.6459 23.1052 10.8355 23.2482C11.0252 23.3913 11.2564 23.4687 11.4939 23.4688H24.634C24.868 23.4688 25.0959 23.3938 25.2842 23.2548C25.4724 23.1158 25.6111 22.92 25.6799 22.6963L29.1443 11.4375Z" fill="black"/>
</g>
</svg>
