<svg width="18" height="17" viewBox="0 0 18 17" fill="none" xmlns="http://www.w3.org/2000/svg">
<path d="M8.76386 0.440778C8.84168 0.216886 9.15832 0.216888 9.23614 0.440776L11.0008 5.51737C11.1038 5.81367 11.3803 6.01458 11.6939 6.02097L17.0673 6.13047C17.3043 6.1353 17.4022 6.43644 17.2133 6.57964L12.9304 9.82665C12.6805 10.0162 12.5749 10.3412 12.6657 10.6415L14.222 15.7858C14.2907 16.0126 14.0345 16.1987 13.8399 16.0634L9.42838 12.9935C9.1709 12.8143 8.8291 12.8143 8.57162 12.9935L4.16006 16.0634C3.9655 16.1987 3.70933 16.0126 3.77797 15.7858L5.33431 10.6415C5.42515 10.3412 5.31953 10.0162 5.06955 9.82665L0.786724 6.57964C0.59784 6.43644 0.695687 6.1353 0.932666 6.13047L6.30609 6.02097C6.61972 6.01458 6.89624 5.81367 6.99924 5.51737L8.76386 0.440778Z" fill="#FFE5B4" stroke="#202020" stroke-width="0.5"/>
</svg>
