<svg width="22" height="20" viewBox="0 0 22 20" fill="none" xmlns="http://www.w3.org/2000/svg">
<path d="M9.125 17.9062C9.125 18.1906 9.04069 18.4685 8.88274 18.7049C8.72478 18.9413 8.50028 19.1255 8.23761 19.2343C7.97494 19.3431 7.68591 19.3716 7.40706 19.3161C7.12821 19.2607 6.87207 19.1238 6.67103 18.9227C6.47 18.7217 6.33309 18.4655 6.27762 18.1867C6.22215 17.9078 6.25062 17.6188 6.35942 17.3561C6.46822 17.0935 6.65247 16.869 6.88887 16.711C7.12526 16.5531 7.40319 16.4688 7.6875 16.4688C8.06875 16.4688 8.43438 16.6202 8.70397 16.8898C8.97355 17.1594 9.125 17.525 9.125 17.9062ZM17.0312 16.4688C16.7469 16.4688 16.469 16.5531 16.2326 16.711C15.9962 16.869 15.812 17.0935 15.7032 17.3561C15.5944 17.6188 15.5659 17.9078 15.6214 18.1867C15.6768 18.4655 15.8137 18.7217 16.0148 18.9227C16.2158 19.1238 16.472 19.2607 16.7508 19.3161C17.0297 19.3716 17.3187 19.3431 17.5814 19.2343C17.844 19.1255 18.0685 18.9413 18.2265 18.7049C18.3844 18.4685 18.4688 18.1906 18.4688 17.9062C18.4688 17.525 18.3173 17.1594 18.0477 16.8898C17.7781 16.6202 17.4125 16.4688 17.0312 16.4688ZM21.3123 5.17988L18.7491 13.5093C18.6148 13.9508 18.3418 14.3374 17.9705 14.6115C17.5993 14.8857 17.1496 15.0329 16.688 15.0312H8.05316C7.58505 15.0295 7.13011 14.8761 6.75646 14.5942C6.3828 14.3122 6.11055 13.9167 5.98047 13.4671L2.72992 2.09375H1.21875C1.02813 2.09375 0.845309 2.01802 0.710517 1.88323C0.575725 1.74844 0.5 1.56562 0.5 1.375C0.5 1.18438 0.575725 1.00156 0.710517 0.866767C0.845309 0.731975 1.02813 0.65625 1.21875 0.65625H2.72992C3.04205 0.657285 3.34544 0.75938 3.5947 0.947252C3.84395 1.13512 4.02566 1.39867 4.11262 1.69844L4.84125 4.25H20.625C20.7375 4.24996 20.8484 4.27632 20.9488 4.32695C21.0493 4.37758 21.1364 4.45108 21.2033 4.54153C21.2701 4.63198 21.3148 4.73686 21.3338 4.84773C21.3527 4.9586 21.3453 5.07237 21.3123 5.17988ZM19.652 5.6875H5.25184L7.36227 13.0727C7.4052 13.2228 7.49585 13.3548 7.6205 13.4488C7.74516 13.5429 7.89703 13.5937 8.05316 13.5938H16.688C16.8418 13.5938 16.9916 13.5445 17.1153 13.4532C17.239 13.3618 17.3302 13.2331 17.3754 13.0861L19.652 5.6875Z" fill="white"/>
</svg>
