<svg width="32" height="30" viewBox="0 0 32 30" fill="none" xmlns="http://www.w3.org/2000/svg">
<path d="M13.125 26.8148C13.125 27.2475 12.9967 27.6705 12.7563 28.0302C12.516 28.39 12.1743 28.6704 11.7746 28.836C11.3749 29.0016 10.9351 29.0449 10.5107 28.9605C10.0864 28.876 9.69663 28.6677 9.3907 28.3617C9.08478 28.0558 8.87644 27.666 8.79203 27.2416C8.70763 26.8172 8.75095 26.3774 8.91651 25.9776C9.08208 25.5779 9.36246 25.2362 9.72219 24.9958C10.0819 24.7554 10.5049 24.6271 10.9375 24.6271C11.5177 24.6271 12.0741 24.8576 12.4843 25.2679C12.8945 25.6781 13.125 26.2346 13.125 26.8148ZM25.1562 24.6271C24.7236 24.6271 24.3007 24.7554 23.9409 24.9958C23.5812 25.2362 23.3008 25.5779 23.1353 25.9776C22.9697 26.3774 22.9264 26.8172 23.0108 27.2416C23.0952 27.666 23.3035 28.0558 23.6095 28.3617C23.9154 28.6677 24.3052 28.876 24.7295 28.9605C25.1538 29.0449 25.5937 29.0016 25.9934 28.836C26.3931 28.6704 26.7347 28.39 26.9751 28.0302C27.2155 27.6705 27.3438 27.2475 27.3438 26.8148C27.3438 26.2346 27.1133 25.6781 26.703 25.2679C26.2928 24.8576 25.7364 24.6271 25.1562 24.6271ZM31.6709 7.44689L27.7703 20.1232C27.566 20.7952 27.1506 21.3834 26.5856 21.8006C26.0207 22.2179 25.3363 22.4419 24.634 22.4394H11.4939C10.7816 22.4368 10.0893 22.2034 9.52069 21.7742C8.95209 21.3451 8.5378 20.7433 8.33984 20.0589L3.39336 2.75019H1.09375C0.803669 2.75019 0.52547 2.63495 0.320352 2.42981C0.115234 2.22468 0 1.94645 0 1.65635C0 1.36624 0.115234 1.08802 0.320352 0.88288C0.52547 0.677744 0.803669 0.5625 1.09375 0.5625H3.39336C3.86833 0.564076 4.33002 0.719451 4.70932 1.00537C5.08862 1.29129 5.36513 1.69237 5.49746 2.14858L6.60625 6.03173H30.625C30.7962 6.03167 30.9649 6.07178 31.1178 6.14884C31.2706 6.2259 31.4032 6.33775 31.505 6.4754C31.6067 6.61306 31.6747 6.77267 31.7035 6.9414C31.7324 7.11013 31.7212 7.28327 31.6709 7.44689ZM29.1443 8.21942H7.23105L10.4426 19.4587C10.5079 19.6871 10.6459 19.8881 10.8355 20.0312C11.0252 20.1743 11.2564 20.2517 11.4939 20.2517H24.634C24.868 20.2518 25.0959 20.1768 25.2842 20.0378C25.4724 19.8987 25.6111 19.7029 25.6799 19.4792L29.1443 8.21942Z" fill="#202020"/>
</svg>
